<svg width="262" height="262" viewBox="0 0 262 262" fill="none" xmlns="http://www.w3.org/2000/svg">
<path d="M114.885 161.627L121.818 133.829C122.152 133.905 122.498 133.983 122.852 134.063C123.048 134.107 123.247 134.152 123.447 134.197L123.451 134.198C129.563 135.568 138.539 137.597 145.471 141.278C148.928 143.114 151.7 145.273 153.376 147.804C155.001 150.258 155.671 153.17 154.762 156.808L154.762 156.81C153.891 160.314 151.919 162.502 149.248 163.871C146.49 165.285 142.9 165.862 138.863 165.846C130.779 165.815 121.688 163.426 115.78 161.866C115.778 161.866 115.777 161.865 115.775 161.865L115.762 161.861C115.463 161.781 115.171 161.703 114.885 161.627ZM126.836 115.628L126.829 115.626L126.384 115.509L132.588 90.6389C132.931 90.7153 133.287 90.7936 133.656 90.8741C138.773 92.0055 146.189 93.6628 151.863 96.8266C154.684 98.3996 156.911 100.259 158.233 102.456C159.516 104.587 160.038 107.181 159.214 110.497C158.417 113.688 156.729 115.668 154.532 116.915C152.261 118.204 149.315 118.778 145.979 118.831C139.282 118.936 131.773 116.946 126.836 115.628ZM68.4515 243.803L67.1929 243.106C5.87209 208.23 -16.104 130.362 18.1933 68.4958L18.1935 68.4955C52.7214 6.18068 131.236 -16.3434 193.503 18.1928L193.503 18.1932C255.818 52.7206 278.343 131.235 243.808 193.536C209.276 255.826 130.764 278.341 68.4515 243.803ZM163.111 76.8886L168.553 55.0571L169.037 53.1161L167.096 52.6326L152.718 49.0513L150.777 48.568L150.294 50.5083L145.045 71.5641C142.52 70.9509 139.965 70.3614 137.423 69.7776L142.7 48.6161L143.184 46.6764L141.244 46.1918L126.88 42.6028L124.939 42.118L124.455 44.0585L119.032 65.7692C117.257 65.3611 115.505 64.9521 113.783 64.536L113.801 64.4706L111.827 63.9778L91.9956 59.0256L90.0535 58.5406L89.5702 60.4831L85.7529 75.8264L85.2607 77.8045L87.2478 78.2589L87.6937 76.3093L87.2478 78.259L87.2482 78.259L87.2496 78.2594L87.2552 78.2607L87.2777 78.2658L87.3662 78.2861L87.7027 78.3634C87.9928 78.4302 88.4072 78.5258 88.9038 78.6411C89.8975 78.8718 91.2188 79.1808 92.5322 79.4947C92.9539 79.5955 93.3735 79.6965 93.7803 79.7954L93.6853 79.87L97.6572 80.8571C100.167 81.4807 101.402 82.5485 102.043 83.56C102.681 84.5652 102.888 85.7609 102.843 86.9726L96.178 113.69L95.6941 115.63L95.7027 115.632L86.7913 151.327C86.5073 151.993 86.0783 152.66 85.4886 153.086C84.9496 153.475 84.0914 153.805 82.5825 153.434L77.3876 152.158L77.4259 152.212C76.1189 151.875 74.8074 151.532 73.8211 151.272C73.3267 151.142 72.9144 151.033 72.6258 150.957L72.291 150.868L72.2029 150.845L72.1805 150.839L72.1748 150.837L72.1734 150.837L72.173 150.837L70.5092 150.395L69.8243 151.974L62.6939 168.419L61.7555 170.583L64.0441 171.155L82.7523 175.829L82.759 175.83C84.8139 176.336 86.8628 176.874 88.908 177.411L88.926 177.415L88.9312 177.417L91.0619 177.97L85.5931 199.931L85.1099 201.871L87.0505 202.355L101.418 205.933L103.359 206.417L103.842 204.475L109.229 182.827C111.806 183.519 114.331 184.17 116.811 184.796L111.433 206.379L110.948 208.322L112.891 208.804L127.262 212.372L129.2 212.853L129.684 210.916L135.186 188.903C146.768 190.965 157.249 191.53 165.919 188.863C175.229 185.999 182.222 179.481 186.29 167.862C189.528 158.617 189.545 151.032 186.811 144.79C184.659 139.876 180.897 136.013 176.118 132.895C179.326 131.602 182.223 129.723 184.645 127.124C188.152 123.36 190.534 118.223 191.523 111.521C192.92 102.153 190.021 94.8309 184.338 89.1021C179.108 83.8287 171.58 79.9591 163.111 76.8886Z" stroke="url(#paint0_linear_982_3019)" stroke-width="4"/>
<defs>
<linearGradient id="paint0_linear_982_3019" x1="123.068" y1="7.19856" x2="131" y2="262" gradientUnits="userSpaceOnUse">
<stop stop-color="#ABE581"/>
<stop offset="1" stop-color="#8CE5CC"/>
</linearGradient>
</defs>
</svg>
