<svg width="32" height="32" viewBox="0 0 32 32" fill="none" xmlns="http://www.w3.org/2000/svg">
<g clip-path="url(#clip0_247_966)">
<path fill-rule="evenodd" clip-rule="evenodd" d="M16.0002 0.666504C12.2018 0.668475 8.52801 2.01378 5.63566 4.46187C2.74331 6.90995 0.821042 10.3012 0.212563 14.0292C-0.395915 17.7572 0.349073 21.5788 2.31433 24.8107C4.27959 28.0427 7.33696 30.4742 10.9397 31.6705C11.7346 31.818 12.034 31.3254 12.034 30.9065C12.034 30.4876 12.0181 29.2732 12.0128 27.9455C7.5617 28.907 6.62115 26.0672 6.62115 26.0672C5.8952 24.2231 4.84602 23.7384 4.84602 23.7384C3.39412 22.7531 4.95466 22.7715 4.95466 22.7715C6.56287 22.8848 7.40804 24.4128 7.40804 24.4128C8.83345 26.8443 11.1517 26.1409 12.0631 25.73C12.2062 24.6999 12.6221 23.9992 13.0805 23.6014C9.52494 23.201 5.78922 21.8363 5.78922 15.7404C5.76718 14.1594 6.3572 12.6306 7.43718 11.4701C7.27292 11.0697 6.72447 9.45215 7.59349 7.25508C7.59349 7.25508 8.93677 6.82831 11.9942 8.88576C14.6167 8.17267 17.3837 8.17267 20.0062 8.88576C23.061 6.82831 24.4016 7.25508 24.4016 7.25508C25.2732 9.44688 24.7248 11.0644 24.5605 11.4701C25.6439 12.6308 26.2352 14.1623 26.2111 15.7457C26.2111 21.8548 22.4675 23.201 18.9066 23.5935C19.4789 24.0887 19.9903 25.0555 19.9903 26.5413C19.9903 28.6699 19.9717 30.3823 19.9717 30.9065C19.9717 31.3306 20.2605 31.8259 21.0712 31.6705C24.6744 30.474 27.7321 28.0421 29.6973 24.8096C31.6625 21.5771 32.4071 17.7549 31.798 14.0266C31.1888 10.2982 29.2656 6.90698 26.3723 4.45931C23.479 2.01165 19.8043 0.667225 16.0055 0.666504H16.0002Z" fill="white"/>
<path d="M6.05909 23.5093C6.02464 23.5884 5.89747 23.6121 5.79414 23.5568C5.69081 23.5014 5.61398 23.3987 5.65108 23.317C5.68817 23.2354 5.81269 23.2143 5.91602 23.2696C6.01935 23.3249 6.09883 23.4303 6.05909 23.5093Z" fill="white"/>
<path d="M6.70798 24.2284C6.65311 24.2558 6.59034 24.2635 6.53041 24.2501C6.47048 24.2366 6.41712 24.2029 6.37945 24.1546C6.27612 24.0439 6.25492 23.8912 6.3344 23.8227C6.41388 23.7542 6.55696 23.7858 6.66029 23.8964C6.76362 24.0071 6.78746 24.1599 6.70798 24.2284Z" fill="white"/>
<path d="M7.33916 25.1427C7.24113 25.2112 7.0742 25.1427 6.98147 25.0057C6.95583 24.9811 6.93544 24.9517 6.92151 24.9191C6.90758 24.8865 6.90039 24.8515 6.90039 24.816C6.90039 24.7806 6.90758 24.7456 6.92151 24.713C6.93544 24.6804 6.95583 24.6509 6.98147 24.6264C7.0795 24.5605 7.24643 24.6264 7.33916 24.7607C7.43189 24.8951 7.43454 25.0742 7.33916 25.1427Z" fill="white"/>
<path d="M8.19449 26.028C8.10706 26.1255 7.92955 26.0991 7.78383 25.9674C7.63812 25.8357 7.60366 25.6565 7.69109 25.5617C7.77853 25.4669 7.95604 25.4932 8.10706 25.6223C8.25808 25.7514 8.28722 25.9332 8.19449 26.028Z" fill="white"/>
<path d="M9.39457 26.544C9.35483 26.6678 9.17467 26.7232 8.9945 26.6705C8.81434 26.6178 8.69512 26.4703 8.72956 26.3438C8.764 26.2174 8.94682 26.1594 9.12963 26.2174C9.31244 26.2753 9.42902 26.4149 9.39457 26.544Z" fill="white"/>
<path d="M10.7038 26.6337C10.7038 26.7628 10.5554 26.8735 10.3647 26.8761C10.1739 26.8787 10.0176 26.7734 10.0176 26.6443C10.0176 26.5152 10.1659 26.4045 10.3567 26.4019C10.5475 26.3993 10.7038 26.502 10.7038 26.6337Z" fill="white"/>
<path d="M11.9229 26.4309C11.9467 26.56 11.8142 26.6943 11.6235 26.7259C11.4327 26.7576 11.2658 26.6812 11.2419 26.5547C11.2181 26.4283 11.3559 26.2913 11.5413 26.257C11.7268 26.2228 11.899 26.3018 11.9229 26.4309Z" fill="white"/>
</g>
<defs>
<clipPath id="clip0_247_966">
<rect width="32" height="32" fill="white"/>
</clipPath>
</defs>
</svg>
