<svg width="32" height="32" viewBox="0 0 32 32" fill="none" xmlns="http://www.w3.org/2000/svg">
<path d="M17.4083 6.56844C17.8008 5.04586 18.2036 3.5549 18.567 2.05562C19.0264 0.156983 20.156 -0.440399 22.0175 0.32172C24.095 1.16704 26.1616 2.03455 28.2173 2.92424C29.0161 3.27036 29.1721 3.7263 28.8275 4.36694C28.531 4.91773 28.1316 5.10077 27.4957 4.82621C25.5948 4.00751 23.6716 3.23874 21.7724 2.41672C21.145 2.14548 20.8433 2.25031 20.6891 2.91592C20.3788 4.26377 20.0154 5.59831 19.6521 7.02271C20.492 7.28895 21.301 7.52192 22.0929 7.79981C23.3082 8.23245 23.483 8.44711 23.4642 9.67848C23.4059 15.4693 23.3345 21.2589 23.2499 27.0475C23.2499 27.7131 23.2499 28.402 23.0785 29.0293C22.9274 29.5451 22.6176 30.0037 22.1906 30.3439C20.7628 31.3922 19.0641 31.8249 17.3158 31.948C12.878 32.2592 8.67505 31.1243 4.50126 29.8613C3.96475 29.6949 3.69564 29.3621 3.60822 28.7797C3.05918 24.9666 2.88128 21.1119 3.07686 17.2664C3.20541 14.3344 3.44367 11.4074 3.68021 8.48871C3.70691 8.31137 3.77243 8.14164 3.87237 7.99095C3.9723 7.84026 4.10433 7.7121 4.25957 7.6151C6.26677 6.59672 8.41109 5.80299 10.6617 5.65988C12.1632 5.56171 13.7042 5.9827 15.2246 6.1907C15.9239 6.28056 16.6147 6.42699 17.4083 6.56844ZM9.63837 18.2598C8.69391 21.0088 7.81116 23.5847 6.92326 26.1672L6.94383 26.1772L13.4659 15.9052H8.02199L9.67094 12.2128L4.54068 17.7739L9.63837 18.2598ZM10.3686 30.8115C11.7964 31.0062 13.2242 31.2092 14.6538 31.4005C15.168 31.4688 15.3531 31.2508 15.3583 30.7449C15.4097 24.4899 15.4817 18.2349 15.5417 11.9798C15.5309 11.8087 15.5074 11.6385 15.4714 11.4706H15.2417C15.1166 12.4907 14.9297 13.5074 14.8749 14.5324C14.7223 17.4062 14.7172 20.2916 14.4721 23.157C14.323 24.9275 13.9133 26.693 13.4659 28.4253C13.1231 29.7448 12.0707 30.6983 10.3686 30.8115ZM8.83789 7.25068C11.709 7.93626 14.5972 8.56193 17.446 9.3307C18.8379 9.70677 19.9349 9.12769 21.1262 8.6235L19.3195 8.12429C19.1053 8.9563 18.5602 9.17262 17.8163 9.03451C17.0106 8.88308 16.9712 8.3506 17.2232 7.61843C14.3932 7.3422 11.7158 6.14578 8.83789 7.25068ZM17.3055 9.78664C14.1687 9.03617 11.2136 8.36724 8.28253 7.60678C7.29522 7.35219 6.63187 7.80314 5.87253 8.19751C8.46594 8.79988 11.0525 9.32072 13.6373 9.80162C14.7943 10.0196 15.9531 10.4539 17.3055 9.78664ZM22.8677 9.28744L22.6363 9.13768C21.7792 9.41224 20.9222 9.67183 20.0651 9.96968C19.8937 10.0279 19.6589 10.2692 19.6778 10.3957C19.9212 11.9948 20.2057 13.5873 20.48 15.183L22.8677 9.28744ZM19.9383 14.7121C19.7172 13.4491 19.4429 11.8833 19.1584 10.2492L16.1056 11.2476L19.9383 14.7121Z" fill="white"/>
</svg>
