<svg width="21" height="21" viewBox="0 0 21 21" fill="none" xmlns="http://www.w3.org/2000/svg">
<path d="M8.75035 15.3562L7.20159 16.8612C6.79548 17.2673 6.24468 17.4955 5.67035 17.4955C5.09601 17.4955 4.54521 17.2673 4.1391 16.8612C3.73298 16.4551 3.50483 15.9043 3.50483 15.33C3.50483 14.7556 3.73298 14.2048 4.1391 13.7987L8.1116 9.81746C8.50151 9.42628 9.02686 9.19995 9.57898 9.1853C10.1311 9.17064 10.6677 9.36877 11.0778 9.73871L11.1828 9.82621C11.3488 9.98866 11.5724 10.0785 11.8046 10.0761C12.0368 10.0736 12.2585 9.97901 12.421 9.81309C12.5834 9.64716 12.6733 9.4235 12.6708 9.1913C12.6684 8.95911 12.5738 8.73741 12.4078 8.57496C12.3585 8.51111 12.3059 8.44978 12.2503 8.39121C11.5034 7.74136 10.5374 7.3997 9.54797 7.43544C8.55855 7.47119 7.6197 7.88166 6.9216 8.58371L2.8966 12.565C2.21266 13.3094 1.84276 14.2893 1.86416 15.3C1.88556 16.3107 2.29659 17.274 3.01142 17.9889C3.72626 18.7037 4.68961 19.1147 5.70031 19.1361C6.71101 19.1575 7.6909 18.7876 8.43535 18.1037L9.9491 16.625C10.0986 16.4619 10.1807 16.2483 10.1791 16.0271C10.1774 15.8059 10.092 15.5936 9.94009 15.4328C9.78818 15.272 9.58102 15.1747 9.36028 15.1605C9.13954 15.1463 8.92161 15.2162 8.75035 15.3562ZM18.1041 2.89621C17.368 2.16472 16.3724 1.75415 15.3347 1.75415C14.297 1.75415 13.3014 2.16472 12.5653 2.89621L11.0516 4.37496C10.9021 4.53802 10.82 4.75163 10.8216 4.97282C10.8233 5.19401 10.9087 5.40635 11.0606 5.56714C11.2125 5.72792 11.4197 5.8252 11.6404 5.8394C11.8612 5.85361 12.0791 5.78369 12.2503 5.64371L13.7641 4.13871C14.1702 3.7326 14.721 3.50445 15.2953 3.50445C15.8697 3.50445 16.4205 3.7326 16.8266 4.13871C17.2327 4.54482 17.4609 5.09563 17.4609 5.66996C17.4609 6.24429 17.2327 6.7951 16.8266 7.20121L12.8541 11.1825C12.4642 11.5736 11.9388 11.8 11.3867 11.8146C10.8346 11.8293 10.298 11.6311 9.88785 11.2612L9.78285 11.1737C9.61692 11.0113 9.39326 10.9214 9.16107 10.9238C8.92887 10.9263 8.70717 11.0209 8.54472 11.1868C8.38228 11.3528 8.2924 11.5764 8.29486 11.8086C8.29732 12.0408 8.39192 12.2625 8.55785 12.425C8.6214 12.49 8.68859 12.5513 8.7591 12.6087C9.50694 13.2566 10.4725 13.597 11.4614 13.5613C12.4502 13.5255 13.3887 13.1164 14.0878 12.4162L18.0691 8.43496C18.8053 7.70353 19.2221 6.71054 19.2287 5.6728C19.2352 4.63507 18.831 3.63689 18.1041 2.89621Z" fill="#2B2B2B"/>
</svg>
