<svg width="32" height="32" viewBox="0 0 32 32" fill="none" xmlns="http://www.w3.org/2000/svg">
<path d="M16.1373 0C24.888 0 32 7.31333 32 15.996C32 24.676 24.8933 31.9827 16.1333 31.9827L0 32V15.72C0 7.04 7.376 0 16.1373 0ZM16.292 6.084C12.8347 6.08 9.63067 7.88667 7.84267 10.844C6.06933 13.788 5.99333 17.4533 7.64533 20.4707L5.86667 26.1467L12.2587 24.7147C15.9187 26.348 20.212 25.616 23.1067 22.8613C26 20.1227 26.92 15.8907 25.4227 12.1987C23.9093 8.49467 20.3027 6.07867 16.3027 6.08533H16.292V6.084Z" fill="white"/>
</svg>
