<svg width="32" height="32" viewBox="0 0 32 32" fill="none" xmlns="http://www.w3.org/2000/svg">
<path d="M14.4022 23.6937C14.5252 23.6939 14.6471 23.7183 14.7608 23.7656C14.8744 23.8129 14.9776 23.8821 15.0646 23.9692C15.1515 24.0564 15.2204 24.1598 15.2673 24.2736C15.3143 24.3874 15.3383 24.5093 15.3382 24.6324C15.338 24.7555 15.3136 24.8774 15.2663 24.991C15.219 25.1047 15.1498 25.2079 15.0627 25.2948C14.9755 25.3817 14.8721 25.4506 14.7583 25.4976C14.6445 25.5445 14.5226 25.5686 14.3995 25.5684C14.1509 25.5681 13.9126 25.469 13.7371 25.2929C13.5616 25.1169 13.4631 24.8783 13.4635 24.6297C13.4638 24.3811 13.5629 24.1429 13.739 23.9673C13.915 23.7918 14.1536 23.6934 14.4022 23.6937ZM29.1008 17.8977C28.9777 17.8977 28.8559 17.8733 28.7422 17.8261C28.6285 17.779 28.5252 17.7098 28.4382 17.6227C28.3512 17.5356 28.2823 17.4323 28.2352 17.3185C28.1882 17.2047 28.1641 17.0828 28.1642 16.9597C28.1642 16.8367 28.1886 16.7148 28.2358 16.6011C28.2829 16.4874 28.3521 16.3841 28.4392 16.2971C28.5263 16.2102 28.6296 16.1412 28.7434 16.0942C28.8572 16.0471 28.9791 16.023 29.1022 16.0231C29.3507 16.0233 29.5891 16.1222 29.7648 16.2981C29.9404 16.474 30.039 16.7125 30.0388 16.9611C30.0386 17.2097 29.9397 17.448 29.7638 17.6237C29.5879 17.7993 29.3494 17.8979 29.1008 17.8977ZM29.1008 14.0631C28.3323 14.0638 27.5954 14.3694 27.0519 14.9129C26.5085 15.4563 26.2029 16.1932 26.2022 16.9617C26.2022 17.2724 26.2542 17.5817 26.3555 17.8831L16.7808 22.9804C16.5153 22.5949 16.1601 22.2798 15.7457 22.0621C15.3313 21.8445 14.8702 21.7309 14.4022 21.7311C13.2968 21.7311 12.2902 22.3644 11.8022 23.3524L3.20082 18.8164C2.29149 18.3391 1.61149 16.8431 1.68349 15.4804C1.72082 14.7697 1.96615 14.2177 2.34082 14.0044C2.57815 13.8711 2.86349 13.8817 3.16749 14.0404L3.22349 14.0711C5.50349 15.2711 12.9622 19.2004 13.2768 19.3457C13.7608 19.5711 14.0302 19.6617 14.8568 19.2697L30.2755 11.2511C30.5022 11.1657 30.7662 10.9484 30.7662 10.6191C30.7662 10.1631 30.2942 9.98308 30.2928 9.98308C29.4155 9.56308 28.0675 8.93241 26.7528 8.31641C23.9422 7.00041 20.7568 5.50975 19.3582 4.77641C18.1502 4.14441 17.1782 4.67775 17.0048 4.78441L16.6688 4.95108C10.3728 8.06441 1.94615 12.2377 1.46615 12.5297C0.608821 13.0524 0.0768205 14.0937 0.00748721 15.3857C-0.0991795 17.4351 0.944821 19.5724 2.43949 20.3551L11.5355 25.0457C11.6357 25.7348 11.9804 26.3648 12.5068 26.8206C13.0331 27.2764 13.7059 27.5277 14.4022 27.5284C15.1626 27.5271 15.8922 27.2275 16.434 26.6939C16.9758 26.1603 17.2866 25.4354 17.2995 24.6751L27.3182 19.2444C27.8248 19.6417 28.4555 19.8591 29.1008 19.8591C29.8694 19.8584 30.6063 19.5528 31.1497 19.0093C31.6932 18.4658 31.9988 17.729 31.9995 16.9604C31.9988 16.1919 31.6932 15.455 31.1497 14.9115C30.6063 14.3681 29.8694 14.0625 29.1008 14.0617" fill="white"/>
</svg>
