<svg width="204" height="204" viewBox="0 0 204 204" fill="none" xmlns="http://www.w3.org/2000/svg">
<path fill-rule="evenodd" clip-rule="evenodd" d="M186.86 150.999C159.808 197.861 99.8836 213.913 53.0161 186.851C6.14856 159.789 -9.91307 99.8624 17.1397 53.0009C44.1925 6.1394 104.116 -9.91292 150.984 17.1488C197.851 44.2105 213.913 104.138 186.86 150.999ZM190.324 152.999C162.167 201.774 99.7964 218.481 51.0163 190.315C2.23609 162.149 -14.4818 99.776 13.6757 51.0008C41.8332 2.22553 104.204 -14.4815 152.984 13.6846C201.764 41.8507 218.482 104.224 190.324 152.999ZM103.206 86.3886L103.197 86.3574L103.188 86.3263L93.5935 52.4176L93.5927 52.4149C93.0991 50.6539 94.1244 48.8792 95.8969 48.4275C97.7758 47.9488 99.6881 49.1203 100.143 50.832L100.15 50.8601L100.158 50.888L109.714 84.8735C110.21 86.6354 109.225 88.3412 107.451 88.7931C105.572 89.2719 103.66 88.1003 103.206 86.3886ZM99.3397 87.4154L89.743 53.5003C88.6391 49.5745 90.9578 45.558 94.9092 44.5512C98.8605 43.5444 102.977 45.9212 104.009 49.8053L113.565 83.7908C114.668 87.7166 112.39 91.6626 108.439 92.6694C104.488 93.6762 100.371 91.2994 99.3397 87.4154ZM152.633 86.9952C156.116 84.966 157.085 80.452 154.956 76.9678C152.827 73.4836 148.235 72.4297 144.753 74.459L114.685 92.5177C111.202 94.5469 110.233 99.0609 112.362 102.545C114.532 105.959 119.155 107.125 122.565 105.054L152.633 86.9952ZM115.757 100.429C116.821 102.067 119.034 102.518 120.489 101.635L120.497 101.63L120.506 101.625L150.574 83.5659L150.597 83.5522L150.62 83.5389C152.004 82.7321 152.602 80.7873 151.543 79.0535C150.595 77.5024 148.456 76.9441 146.785 77.9044L116.744 95.947L116.721 95.9606L116.699 95.9739C115.322 96.776 114.723 98.7026 115.757 100.429ZM140.168 136.45L113.958 112.297C110.939 109.521 106.253 109.633 103.506 112.557C100.759 115.48 100.973 120.114 103.992 122.89L130.201 147.043C133.22 149.82 137.907 149.708 140.654 146.784C143.401 143.86 143.187 139.227 140.168 136.45ZM132.908 144.099L132.909 144.1C134.381 145.452 136.554 145.306 137.739 144.045C138.908 142.8 138.898 140.717 137.46 139.395L137.457 139.392L111.251 115.242L111.25 115.241C109.778 113.889 107.605 114.035 106.421 115.296C105.251 116.541 105.261 118.624 106.699 119.946L106.702 119.949L132.908 144.099ZM90.0392 108.146L90.0707 108.16L90.1024 108.172C91.9533 108.923 92.7379 110.915 92.0923 112.549L92.0901 112.555L79.1086 144.879L79.1058 144.885L79.1031 144.892C78.4741 146.475 76.5914 147.367 74.7257 146.61C72.8748 145.86 72.0902 143.867 72.7359 142.233L72.7381 142.228L85.7196 109.904L85.7208 109.901C86.3914 108.227 88.3322 107.42 90.0392 108.146ZM82.0079 108.413L69.0209 140.75C67.5331 144.495 69.3998 148.767 73.2232 150.317C77.0466 151.867 81.3325 150.114 82.8203 146.37L95.8073 114.032C97.295 110.288 95.4283 106.015 91.6049 104.465C87.8944 102.887 83.5363 104.598 82.0079 108.413ZM89.1876 95.1621L89.1941 95.1623C91.0362 95.2083 92.5058 93.7534 92.5129 91.9662C92.5201 90.1289 90.9638 88.5138 89.055 88.4992L89.0236 88.499L88.9922 88.4983L53.5534 87.6718L53.5468 87.6716C51.7048 87.6256 50.2352 89.0805 50.2281 90.8677C50.2211 92.6288 51.7546 94.2845 53.7527 94.3358L53.7553 94.3358L89.1876 95.1621ZM53.6557 98.3347C49.574 98.2328 46.2123 94.8824 46.2283 90.8517C46.2442 86.8209 49.5648 83.5708 53.6465 83.6727L89.0853 84.4992C93.2076 84.5306 96.5286 87.9515 96.5127 91.9822C96.4967 96.013 93.1761 99.2631 89.0945 99.1612L53.6557 98.3347ZM130.838 115.406L130.848 115.422C131.799 116.917 133.954 117.449 135.607 116.429L151.298 106.555C152.754 105.603 153.224 103.674 152.172 102.036C151.138 100.489 148.966 100.006 147.383 100.982L131.692 110.856C130.232 111.811 129.763 113.749 130.828 115.39L130.838 115.406ZM129.537 107.485L145.265 97.588C148.716 95.4466 153.307 96.5004 155.518 99.8437C157.76 103.299 156.831 107.743 153.453 109.926L137.725 119.823C134.274 121.964 129.642 120.981 127.472 117.567C125.23 114.112 126.159 109.668 129.537 107.485ZM97.5763 134.293C98.7584 133.068 100.935 132.903 102.458 134.232L116.418 146.978L116.422 146.982C117.837 148.288 117.893 150.388 116.741 151.699C115.558 152.923 113.382 153.089 111.859 151.76L97.8992 139.014L97.8948 139.01C96.4799 137.704 96.4242 135.604 97.5763 134.293ZM94.6335 131.583C97.3805 128.659 102.067 128.547 105.127 131.253L119.125 144.034C122.144 146.81 122.358 151.443 119.683 154.409C116.936 157.332 112.25 157.445 109.19 154.739L95.1917 141.958C92.1727 139.182 91.9588 134.548 94.6335 131.583ZM125.92 52.6873C124.857 48.6911 120.813 46.3559 116.83 47.2506C112.919 48.1869 110.528 52.1617 111.632 56.0875L116.556 74.245C117.619 78.2412 121.736 80.6181 125.646 79.6817C129.557 78.7454 131.948 74.7706 130.844 70.8448L125.92 52.6873ZM117.735 51.1473C116.018 51.5735 115.004 53.3029 115.483 55.0048L115.488 55.0227L115.493 55.0406L120.417 73.1982L120.419 73.2074L120.422 73.2167C120.92 75.0891 122.888 76.2289 124.715 75.7915C126.447 75.3767 127.475 73.6382 126.994 71.9275L126.989 71.9097L126.984 71.8917L122.06 53.7341L122.057 53.7249L122.055 53.7156C121.566 51.8802 119.689 50.7234 117.735 51.1473ZM69.824 103.822C73.6474 105.372 75.6269 109.616 74.1392 113.36L67.5141 130.674C66.0985 134.461 61.7719 136.284 57.9486 134.734C54.1252 133.184 52.1456 128.941 53.6333 125.196L60.2585 107.882C61.7055 104.208 65.9599 102.343 69.824 103.822ZM57.369 126.626L63.9857 109.334C64.6035 107.789 66.4903 106.851 68.3578 107.544C70.2912 108.349 71.0265 110.362 70.422 111.883L70.4126 111.907L70.4035 111.931L63.7784 129.245L63.7729 129.259L63.7675 129.273C63.176 130.856 61.2826 131.77 59.451 131.027C57.4905 130.233 56.7423 128.204 57.3505 126.674L57.3599 126.65L57.369 126.626ZM85.1396 72.0597L85.1414 72.0232C85.2271 70.3109 83.8219 68.6414 81.8083 68.5366L81.7961 68.536L81.7839 68.5353L62.9655 67.4405L62.9554 67.4399C61.1236 67.3287 59.6245 68.7201 59.5697 70.4454L59.5686 70.4819L59.5667 70.5185C59.481 72.2308 60.8863 73.9003 62.8998 74.0051L62.912 74.0057L62.9243 74.0064L81.7427 75.1012L81.7527 75.1018C83.5846 75.213 85.0837 73.8216 85.1385 72.0963L85.1396 72.0597ZM63.1976 63.4471C59.1973 63.2043 55.7008 66.2588 55.5719 70.3183C55.3708 74.3361 58.579 77.7858 62.6921 77.9998L81.5106 79.0946C85.5108 79.3374 89.0074 76.2829 89.1363 72.2234C89.3374 68.2056 86.1292 64.7559 82.016 64.5419L63.1976 63.4471Z" fill="url(#paint0_linear_1032_6095)"/>
<defs>
<linearGradient id="paint0_linear_1032_6095" x1="95.8239" y1="5.60498" x2="102" y2="204" gradientUnits="userSpaceOnUse">
<stop stop-color="#ABE581"/>
<stop offset="1" stop-color="#8CE5CC"/>
</linearGradient>
</defs>
</svg>
